<?xml version="1.0" encoding="UTF-8"?>
<!DOCTYPE svg PUBLIC "-//W3C//DTD SVG 1.1//EN" "http://www.w3.org/Graphics/SVG/1.1/DTD/svg11.dtd">
<!-- Creator: CorelDRAW -->
<svg xmlns="http://www.w3.org/2000/svg" xml:space="preserve" width="64px" height="64px" shape-rendering="geometricPrecision" text-rendering="geometricPrecision" image-rendering="optimizeQuality" fill-rule="evenodd" clip-rule="evenodd"
viewBox="0 0 640 640"
 xmlns:xlink="http://www.w3.org/1999/xlink">
 <g id="Layer_x0020_1">
  <metadata id="CorelCorpID_0Corel-Layer"/>
  <path fill="white" fill-rule="nonzero" d="M319.941 110.045c27.7444,-31.3587 59.2212,-51.2723 91.3121,-61.6661 33.7681,-10.9371 68.0678,-11.2088 99.4264,-3.14177 31.5004,8.07884 59.9771,24.5672 82.0049,47.0439 29.0555,29.6697 47.3155,69.6032 47.3155,114.663 0,71.3513 -34.3823,139.313 -90.7452,205.054 -52.8077,61.5952 -125.257,121.596 -206.317,180.9 -13.4529,9.86233 -31.1224,9.79146 -44.2919,1.12206l-0.0236223 0.0354335 -0.177168 -0.129923 -0.0236223 0.0354335 -0.0944894 -0.070867 -1.09844 -0.755915c-23.2562,-15.2246 -45.5793,-30.8035 -66.6859,-46.5833 -21.0829,-15.7561 -41.6934,-32.3862 -61.6071,-49.8077 -103.395,-90.4145 -168.935,-189.451 -168.935,-289.799 0,-45.8273 17.9175,-85.6074 46.5124,-115.017 22.1341,-22.7601 50.6935,-39.1068 82.2294,-47.0203l0 -0.0354335c31.2169,-7.79537 65.4457,-7.28749 99.2138,3.5906 32.398,10.4175 64.1819,30.3665 91.9854,61.5834zm115.029 12.2009c-28.5948,9.25996 -57.3314,32.0319 -80.812,72.4497 -3.30713,6.18905 -8.3505,11.5277 -14.8703,15.2718 -18.5435,10.6537 -42.2131,4.25202 -52.8668,-14.2915 -23.4334,-40.7485 -52.7959,-63.8984 -82.1821,-73.3474 -19.2995,-6.21267 -38.8706,-6.51977 -56.6582,-2.07877l-0.0118112 -0.0236223 -0.129923 0.0236223c-17.4569,4.34651 -33.2012,13.3348 -45.2958,25.772 -14.9529,15.39 -24.331,36.4375 -24.331,60.922 0,75.6505 55.17,155.329 142.183,231.428 17.1026,14.9529 36.213,30.2956 57.0479,45.8746 13.4765,10.0749 27.4964,20.079 41.8824,29.8941 67.8788,-50.8471 127.738,-101.73 171.356,-152.6 44.6698,-52.0873 71.8946,-103.726 71.8946,-154.596 0,-23.6932 -9.56705,-44.7053 -24.8153,-60.2606 -12.3781,-12.6261 -28.2996,-21.8861 -45.8273,-26.3743 -17.6695,-4.5473 -37.1816,-4.3347 -56.5637,1.93703z"/>
 </g>
</svg>
